<svg width="377" height="377" viewBox="0 0 377 377" fill="none" xmlns="http://www.w3.org/2000/svg">
	<rect width="376.73" height="376.648" rx="64" fill="#EDF2F7"/>
	<rect x="94.2786" y="156.946" width="44.4433" height="44.4433" transform="rotate(-45 94.2786 156.946)" fill="#7F9CF5"/>
	<rect x="31.4261" y="156.946" width="44.4433" height="44.4433" transform="rotate(-45 31.4261 156.946)" fill="#7F9CF5"/>
	<rect x="94.2786" y="219.799" width="44.4433" height="44.4433" transform="rotate(-45 94.2786 219.799)" fill="#7F9CF5"/>
	<rect x="31.4261" y="219.799" width="44.4433" height="44.4433" transform="rotate(-45 31.4261 219.799)" fill="#7F9CF5"/>
	<rect x="282.452" y="156.898" width="44.4433" height="44.4433" transform="rotate(-45 282.452 156.898)" fill="#5A67D8"/>
	<rect x="219.599" y="156.898" width="44.4433" height="44.4433" transform="rotate(-45 219.599 156.898)" fill="#5A67D8"/>
	<rect x="282.452" y="219.75" width="44.4433" height="44.4433" transform="rotate(-45 282.452 219.75)" fill="#5A67D8"/>
	<rect x="219.599" y="219.75" width="44.4433" height="44.4433" transform="rotate(-45 219.599 219.75)" fill="#5A67D8"/>
	<rect x="188.406" y="62.8523" width="44.4433" height="44.4433" transform="rotate(-45 188.406 62.8523)" fill="#667EEA"/>
	<rect x="125.554" y="62.8523" width="44.4433" height="44.4433" transform="rotate(-45 125.554 62.8523)" fill="#667EEA"/>
	<rect x="188.406" y="125.705" width="44.4433" height="44.4433" transform="rotate(-45 188.406 125.705)" fill="#667EEA"/>
	<rect x="125.554" y="125.705" width="44.4433" height="44.4433" transform="rotate(-45 125.554 125.705)" fill="#667EEA"/>
	<rect x="188.407" y="250.943" width="44.4433" height="44.4433" transform="rotate(-45 188.407 250.943)" fill="#4C51BF"/>
	<rect x="125.554" y="250.943" width="44.4433" height="44.4433" transform="rotate(-45 125.554 250.943)" fill="#4C51BF"/>
	<rect x="188.407" y="313.795" width="44.4433" height="44.4433" transform="rotate(-45 188.407 313.795)" fill="#4C51BF"/>
	<rect x="125.554" y="313.795" width="44.4433" height="44.4433" transform="rotate(-45 125.554 313.795)" fill="#4C51BF"/>
</svg>
